<?xml version="1.0" encoding="UTF-8" standalone="no"?>
<!-- Created with Inkscape (http://www.inkscape.org/) -->

<svg
   xmlns:dc="http://purl.org/dc/elements/1.1/"
   xmlns:cc="http://creativecommons.org/ns#"
   xmlns:rdf="http://www.w3.org/1999/02/22-rdf-syntax-ns#"
   xmlns:svg="http://www.w3.org/2000/svg"
   xmlns="http://www.w3.org/2000/svg"
   xmlns:sodipodi="http://sodipodi.sourceforge.net/DTD/sodipodi-0.dtd"
   xmlns:inkscape="http://www.inkscape.org/namespaces/inkscape"
   width="47.845367mm"
   height="48.164001mm"
   viewBox="0 0 47.845367 48.164001"
   version="1.1"
   id="svg919"
   inkscape:version="0.92.4 (5da689c313, 2019-01-14)"
   sodipodi:docname="dart.svg">
  <defs
     id="defs913" />
  <sodipodi:namedview
     id="base"
     pagecolor="#ffffff"
     bordercolor="#666666"
     borderopacity="1.0"
     inkscape:pageopacity="0.0"
     inkscape:pageshadow="2"
     inkscape:zoom="0.35"
     inkscape:cx="-582.4407"
     inkscape:cy="91.01859"
     inkscape:document-units="mm"
     inkscape:current-layer="layer1"
     showgrid="false"
     fit-margin-top="0"
     fit-margin-left="0"
     fit-margin-right="0"
     fit-margin-bottom="0"
     inkscape:window-width="1920"
     inkscape:window-height="1012"
     inkscape:window-x="0"
     inkscape:window-y="32"
     inkscape:window-maximized="1" />
  <metadata
     id="metadata916">
    <rdf:RDF>
      <cc:Work
         rdf:about="">
        <dc:format>image/svg+xml</dc:format>
        <dc:type
           rdf:resource="http://purl.org/dc/dcmitype/StillImage" />
        <dc:title></dc:title>
      </cc:Work>
    </rdf:RDF>
  </metadata>
  <g
     inkscape:label="Layer 1"
     inkscape:groupmode="layer"
     id="layer1"
     transform="translate(-81.91065,-124.75133)">
    <g
       id="g1062"
       transform="matrix(0.18814131,0,0,0.18814131,81.751385,124.75116)">
      <path
         id="path1036"
         d="M 70.534,69.696 53.988,53.15 l 0.07,119.6 0.198,5.59 c 0.082,2.63 0.57,5.598 1.384,8.674 l 131.104,46.23 32.772,-14.52 0.012,-0.04 L 70.534,69.696"
         inkscape:connector-curvature="0"
         style="fill:#00d2b8" />
      <path
         id="path1038"
         d="m 55.64,187.014 0.008,0.008 c -0.008,-0.054 -0.036,-0.114 -0.036,-0.17 0,0.056 0.008,0.108 0.028,0.162 z m 163.876,31.71 -32.772,14.52 -131.096,-46.222 c 2.504,9.608 8.048,20.408 14.014,26.314 l 42.784,42.54 95.13,0.124 11.952,-37.316 z"
         inkscape:connector-curvature="0"
         style="fill:#55ddca" />
      <path
         id="path1040"
         d="m 3.034,130.116 c -4.236,4.522 -2.132,13.85 4.688,20.722 l 29.418,29.662 18.5,6.514 c -0.814,-3.076 -1.302,-6.044 -1.384,-8.674 l -0.198,-5.59 -0.07,-119.6 z"
         inkscape:connector-curvature="0"
         style="fill:#0081c6" />
      <path
         id="path1042"
         d="m 187.82,54.686 c -3.076,-0.786 -6.026,-1.272 -8.7,-1.356 l -5.908,-0.204 -119.224,0.016 165.556,165.542 h 0.014 L 234.098,185.88 187.82,54.686"
         inkscape:connector-curvature="0"
         style="fill:#0079b3" />
      <path
         id="path1044"
         d="m 187.67,54.654 c 0.064,0.014 0.114,0.032 0.156,0.038 l -0.006,-0.006 c -0.036,-0.018 -0.086,-0.018 -0.15,-0.032 z m 26.448,14.078 C 208.11,62.674 197.452,57.168 187.826,54.692 l 46.272,131.188 -14.54,32.804 h -0.014 l 35.532,-11.348 0.076,-97.416 z"
         inkscape:connector-curvature="0"
         style="fill:#00a4e4" />
      <path
         id="path1046"
         d="M 181.338,36.298 151.684,6.862 c -6.858,-6.794 -16.19,-8.908 -20.7,-4.684 l -76.996,50.964 119.224,-0.016 5.908,0.204 c 2.674,0.084 5.624,0.57 8.7,1.356 z"
         inkscape:connector-curvature="0"
         style="fill:#00d2b8" />
    </g>
  </g>
</svg>
