<?xml version="1.0" encoding="UTF-8" standalone="no"?>
<!-- Created with Inkscape (http://www.inkscape.org/) -->

<svg
   xmlns:dc="http://purl.org/dc/elements/1.1/"
   xmlns:cc="http://creativecommons.org/ns#"
   xmlns:rdf="http://www.w3.org/1999/02/22-rdf-syntax-ns#"
   xmlns:svg="http://www.w3.org/2000/svg"
   xmlns="http://www.w3.org/2000/svg"
   xmlns:sodipodi="http://sodipodi.sourceforge.net/DTD/sodipodi-0.dtd"
   xmlns:inkscape="http://www.inkscape.org/namespaces/inkscape"
   width="54.310627mm"
   height="22.684578mm"
   viewBox="0 0 54.310627 22.684578"
   version="1.1"
   id="svg919"
   inkscape:version="0.92.4 (5da689c313, 2019-01-14)"
   sodipodi:docname="git.svg">
  <defs
     id="defs913" />
  <sodipodi:namedview
     id="base"
     pagecolor="#ffffff"
     bordercolor="#666666"
     borderopacity="1.0"
     inkscape:pageopacity="0.0"
     inkscape:pageshadow="2"
     inkscape:zoom="0.35"
     inkscape:cx="1044.0628"
     inkscape:cy="-71.417216"
     inkscape:document-units="mm"
     inkscape:current-layer="layer1"
     showgrid="false"
     fit-margin-top="0"
     fit-margin-left="0"
     fit-margin-right="0"
     fit-margin-bottom="0"
     inkscape:window-width="1920"
     inkscape:window-height="1012"
     inkscape:window-x="0"
     inkscape:window-y="32"
     inkscape:window-maximized="1" />
  <metadata
     id="metadata916">
    <rdf:RDF>
      <cc:Work
         rdf:about="">
        <dc:format>image/svg+xml</dc:format>
        <dc:type
           rdf:resource="http://purl.org/dc/dcmitype/StillImage" />
        <dc:title></dc:title>
      </cc:Work>
    </rdf:RDF>
  </metadata>
  <g
     inkscape:label="Layer 1"
     inkscape:groupmode="layer"
     id="layer1"
     transform="translate(348.43508,-107.25295)">
    <path
       style="fill:#ffffff;stroke-width:0.21276069"
       inkscape:connector-curvature="0"
       d="m -315.88625,114.97425 c -1.19082,0 -2.07761,0.58466 -2.07761,1.99186 0,1.06019 0.58446,1.79634 2.01336,1.79634 1.21124,0 2.03399,-0.71381 2.03399,-1.84038 0,-1.27656 -0.73615,-1.94782 -1.96974,-1.94782 z m -2.38079,9.93613 c -0.28191,0.34574 -0.56275,0.71339 -0.56275,1.14678 0,0.8653 1.10337,1.12572 2.61908,1.12572 1.25529,0 2.96546,-0.0881 2.96546,-1.25529 0,-0.69381 -0.82275,-0.73658 -1.8623,-0.80168 z m 6.40686,-9.87082 c 0.38893,0.49786 0.80083,1.19083 0.80083,2.18633 0,2.4025 -1.88314,3.80927 -4.60988,3.80927 -0.69339,0 -1.32104,-0.0864 -1.71017,-0.19446 l -0.71467,1.14678 2.12101,0.12978 c 3.74502,0.23872 5.95198,0.34723 5.95198,3.22481 0,2.48973 -2.18547,3.89587 -5.95198,3.89587 -3.91756,0 -5.41114,-0.99572 -5.41114,-2.70547 0,-0.97402 0.43297,-1.49252 1.19061,-2.20803 -0.71445,-0.30191 -0.95232,-0.84274 -0.95232,-1.42762 0,-0.47659 0.23787,-0.90913 0.62807,-1.32082 0.38935,-0.41063 0.82211,-0.82232 1.34167,-1.29848 -1.0604,-0.51956 -1.86165,-1.64507 -1.86165,-3.24715 0,-2.48867 1.64527,-4.19798 4.95626,-4.19798 0.93104,0 1.494,0.0855 1.99186,0.21637 h 4.22117 v 1.83911 z m 5.79964,-3.9333 c -1.23401,0 -1.94825,-0.71488 -1.94825,-1.9491 0,-1.23253 0.71403,-1.90421 1.94825,-1.90421 1.25529,0 1.96974,0.67168 1.96974,1.90421 0,1.23422 -0.71424,1.9491 -1.96974,1.9491 z m -2.79269,13.00755 v -1.70911 l 1.10422,-0.15106 c 0.30319,-0.0436 0.34617,-0.10829 0.34617,-0.43361 v -6.36367 c 0,-0.23744 -0.0647,-0.38977 -0.28191,-0.45403 l -1.16848,-0.41169 0.23786,-1.75272 h 4.48096 v 8.98211 c 0,0.3468 0.0208,0.38999 0.34658,0.43382 l 1.10381,0.15106 v 1.7089 z m 14.72878,-0.83913 c -0.93104,0.45424 -2.29462,0.86551 -3.52885,0.86551 -2.57568,0 -3.54927,-1.03785 -3.54927,-3.48502 v -5.67029 c 0,-0.12978 0,-0.21637 -0.17383,-0.21637 h -1.51485 v -1.92698 c 1.90527,-0.21701 2.66227,-1.16933 2.90035,-3.52863 h 2.05655 v 3.07439 c 0,0.15106 0,0.21638 0.17339,0.21638 h 3.05163 v 2.16441 h -3.22502 v 5.17285 c 0,1.27699 0.30339,1.77443 1.47166,1.77443 0.60679,0 1.2338,-0.15106 1.75315,-0.34595 l 0.58509,1.90506"
       id="path829" />
    <path
       style="fill:#de4c36;stroke-width:0.21276069"
       inkscape:connector-curvature="0"
       d="m -326.19557,117.59461 -9.89677,-9.89614 a 1.4595383,1.4595383 0 0 0 -2.06442,0 l -2.05506,2.05527 2.60696,2.60674 a 1.7329357,1.7329357 0 0 1 1.78357,0.41552 1.7354889,1.7354889 0 0 1 0.41191,1.79443 l 2.51206,2.51249 c 0.60786,-0.20936 1.30933,-0.0738 1.79464,0.41233 a 1.7363399,1.7363399 0 0 1 0,2.45632 1.7369782,1.7369782 0 0 1 -2.83482,-1.88931 l -2.34293,-2.34293 -2.1e-4,6.16581 a 1.7548501,1.7548501 0 0 1 0.45935,0.3285 1.7369782,1.7369782 0 0 1 0,2.45675 c -0.6787,0.67871 -1.77868,0.67871 -2.45632,0 a 1.7369782,1.7369782 0 0 1 0.5685,-2.83567 v -6.22325 a 1.7157021,1.7157021 0 0 1 -0.5685,-0.37914 c -0.51403,-0.5134 -0.63764,-1.26763 -0.37425,-1.89889 l -2.56972,-2.57015 -6.78579,6.78536 a 1.4601765,1.4601765 0 0 0 0,2.06506 l 9.89678,9.89635 a 1.4599638,1.4599638 0 0 0 2.06441,0 l 9.85061,-9.85018 a 1.4608148,1.4608148 0 0 0 0,-2.06527"
       id="path831" />
  </g>
</svg>
