<?xml version="1.0" encoding="UTF-8" standalone="no"?>
<!-- Created with Inkscape (http://www.inkscape.org/) -->

<svg
   xmlns:dc="http://purl.org/dc/elements/1.1/"
   xmlns:cc="http://creativecommons.org/ns#"
   xmlns:rdf="http://www.w3.org/1999/02/22-rdf-syntax-ns#"
   xmlns:svg="http://www.w3.org/2000/svg"
   xmlns="http://www.w3.org/2000/svg"
   xmlns:xlink="http://www.w3.org/1999/xlink"
   xmlns:sodipodi="http://sodipodi.sourceforge.net/DTD/sodipodi-0.dtd"
   xmlns:inkscape="http://www.inkscape.org/namespaces/inkscape"
   width="212.78981mm"
   height="177.46175mm"
   viewBox="0 0 212.78981 177.46175"
   version="1.1"
   id="svg8"
   inkscape:version="0.92.4 (5da689c313, 2019-01-14)"
   sodipodi:docname="topics.svg">
  <defs
     id="defs2">
    <path
       id="a"
       d="M 1.253,280.732 2.858,277.601 102.211,89.083 58.061,5.608 C 54.392,-1.283 45.074,0.474 43.87,8.188 Z"
       inkscape:connector-curvature="0" />
    <filter
       id="b"
       filterUnits="objectBoundingBox"
       height="2"
       width="2"
       y="-0.5"
       x="-0.5">
      <feGaussianBlur
         id="feGaussianBlur869"
         result="shadowBlurInner1"
         in="SourceAlpha"
         stdDeviation="17.5" />
      <feOffset
         id="feOffset871"
         result="shadowOffsetInner1"
         in="shadowBlurInner1" />
      <feComposite
         id="feComposite873"
         result="shadowInnerInner1"
         k3="1"
         k2="-1"
         operator="arithmetic"
         in2="SourceAlpha"
         in="shadowOffsetInner1"
         k1="0"
         k4="0" />
      <feColorMatrix
         id="feColorMatrix875"
         in="shadowInnerInner1"
         values="0 0 0 0 0 0 0 0 0 0 0 0 0 0 0 0 0 0 0.06 0" />
    </filter>
    <path
       id="c"
       d="m 134.417,148.974 32.039,-32.812 -32.039,-61.007 c -3.042,-5.791 -10.433,-6.398 -13.443,-0.59 l -17.705,34.109 -0.53,1.744 z"
       inkscape:connector-curvature="0" />
    <filter
       id="d"
       filterUnits="objectBoundingBox"
       height="2"
       width="2"
       y="-0.5"
       x="-0.5">
      <feGaussianBlur
         id="feGaussianBlur879"
         result="shadowBlurInner1"
         in="SourceAlpha"
         stdDeviation="3.5" />
      <feOffset
         id="feOffset881"
         result="shadowOffsetInner1"
         in="shadowBlurInner1"
         dy="-9"
         dx="1" />
      <feComposite
         id="feComposite883"
         result="shadowInnerInner1"
         k3="1"
         k2="-1"
         operator="arithmetic"
         in2="SourceAlpha"
         in="shadowOffsetInner1"
         k1="0"
         k4="0" />
      <feColorMatrix
         id="feColorMatrix885"
         in="shadowInnerInner1"
         values="0 0 0 0 0 0 0 0 0 0 0 0 0 0 0 0 0 0 0.09 0" />
    </filter>
    <linearGradient
       id="linearGradient-1"
       y2="1"
       x2="0"
       y1="0"
       x1="0">
      <stop
         id="stop944"
         offset="0%"
         stop-color="#FF5678" />
      <stop
         id="stop946"
         offset="100%"
         stop-color="#AF32CF" />
    </linearGradient>
    <linearGradient
       inkscape:collect="always"
       xlink:href="#linearGradient-1"
       id="linearGradient972"
       x1="22.167442"
       y1="26.422766"
       x2="22.167442"
       y2="35.492218"
       gradientTransform="scale(0.81200166,1.2315246)"
       gradientUnits="userSpaceOnUse" />
    <linearGradient
       inkscape:collect="always"
       xlink:href="#linearGradient-1"
       id="linearGradient974"
       x1="16.781071"
       y1="9.6740694"
       x2="16.781071"
       y2="24.70245"
       gradientTransform="scale(0.5363186,1.8645633)"
       gradientUnits="userSpaceOnUse" />
    <linearGradient
       inkscape:collect="always"
       xlink:href="#linearGradient-1"
       id="linearGradient976"
       x1="0"
       y1="0.13445956"
       x2="0"
       y2="18.877337"
       gradientTransform="scale(0.42986315,2.3263218)"
       gradientUnits="userSpaceOnUse" />
    <linearGradient
       inkscape:collect="always"
       xlink:href="#linearGradient-1"
       id="linearGradient978"
       x1="0"
       y1="0.23291369"
       x2="0"
       y2="34.29657"
       gradientTransform="scale(0.744618,1.3429705)"
       gradientUnits="userSpaceOnUse" />
  </defs>
  <sodipodi:namedview
     id="base"
     pagecolor="#ffffff"
     bordercolor="#666666"
     borderopacity="1.0"
     inkscape:pageopacity="0.0"
     inkscape:pageshadow="2"
     inkscape:zoom="0.49497475"
     inkscape:cx="478.87488"
     inkscape:cy="185.09169"
     inkscape:document-units="mm"
     inkscape:current-layer="layer1"
     showgrid="false"
     inkscape:pagecheckerboard="true"
     fit-margin-top="0"
     fit-margin-left="0"
     fit-margin-right="0"
     fit-margin-bottom="0"
     inkscape:window-width="1920"
     inkscape:window-height="1012"
     inkscape:window-x="0"
     inkscape:window-y="32"
     inkscape:window-maximized="1" />
  <metadata
     id="metadata5">
    <rdf:RDF>
      <cc:Work
         rdf:about="">
        <dc:format>image/svg+xml</dc:format>
        <dc:type
           rdf:resource="http://purl.org/dc/dcmitype/StillImage" />
        <dc:title></dc:title>
      </cc:Work>
    </rdf:RDF>
  </metadata>
  <g
     inkscape:label="Layer 1"
     inkscape:groupmode="layer"
     id="layer1"
     transform="translate(277.14558,29.110251)">
    <path
       style="fill:#ffffff;stroke-width:0.21276069"
       inkscape:connector-curvature="0"
       d="m -244.59675,103.88239 c -1.19082,0 -2.07761,0.58466 -2.07761,1.99186 0,1.06019 0.58446,1.79634 2.01336,1.79634 1.21124,0 2.03399,-0.71381 2.03399,-1.84038 0,-1.27656 -0.73615,-1.94782 -1.96974,-1.94782 z m -2.38079,9.93613 c -0.28191,0.34574 -0.56275,0.71339 -0.56275,1.14678 0,0.8653 1.10337,1.12572 2.61908,1.12572 1.25529,0 2.96546,-0.0881 2.96546,-1.25529 0,-0.69381 -0.82275,-0.73658 -1.8623,-0.80168 z m 6.40686,-9.87082 c 0.38893,0.49786 0.80083,1.19083 0.80083,2.18633 0,2.4025 -1.88314,3.80927 -4.60988,3.80927 -0.69339,0 -1.32104,-0.0864 -1.71017,-0.19446 l -0.71467,1.14678 2.12101,0.12978 c 3.74502,0.23872 5.95198,0.34723 5.95198,3.22481 0,2.48973 -2.18547,3.89587 -5.95198,3.89587 -3.91756,0 -5.41114,-0.99572 -5.41114,-2.70547 0,-0.97402 0.43297,-1.49252 1.19061,-2.20803 -0.71445,-0.30191 -0.95232,-0.84274 -0.95232,-1.42762 0,-0.47659 0.23787,-0.90913 0.62807,-1.32082 0.38935,-0.41063 0.82211,-0.82232 1.34167,-1.29848 -1.0604,-0.51956 -1.86165,-1.64507 -1.86165,-3.24715 0,-2.48867 1.64527,-4.19798 4.95626,-4.19798 0.93104,0 1.494,0.0855 1.99186,0.21637 h 4.22117 v 1.83911 z m 5.79964,-3.9333 c -1.23401,0 -1.94825,-0.714878 -1.94825,-1.949103 0,-1.232522 0.71403,-1.904208 1.94825,-1.904208 1.25529,0 1.96974,0.671686 1.96974,1.904208 0,1.234225 -0.71424,1.949103 -1.96974,1.949103 z m -2.79269,13.00755 v -1.70911 l 1.10422,-0.15106 c 0.30319,-0.0436 0.34617,-0.10829 0.34617,-0.43361 v -6.36367 c 0,-0.23744 -0.0647,-0.38977 -0.28191,-0.45403 l -1.16848,-0.41169 0.23786,-1.75272 h 4.48096 v 8.98211 c 0,0.3468 0.0208,0.38999 0.34658,0.43382 l 1.10381,0.15106 v 1.7089 z m 14.72878,-0.83913 c -0.93104,0.45424 -2.29462,0.86551 -3.52885,0.86551 -2.57568,0 -3.54927,-1.03785 -3.54927,-3.48502 v -5.67029 c 0,-0.12978 0,-0.21637 -0.17383,-0.21637 h -1.51485 v -1.92698 c 1.90527,-0.21701 2.66227,-1.16933 2.90035,-3.528632 h 2.05655 v 3.074392 c 0,0.15106 0,0.21638 0.17339,0.21638 h 3.05163 v 2.16441 h -3.22502 v 5.17285 c 0,1.27699 0.30339,1.77443 1.47166,1.77443 0.60679,0 1.2338,-0.15106 1.75315,-0.34595 l 0.58509,1.90506"
       id="path829" />
    <path
       style="fill:#de4c36;stroke-width:0.21276069"
       inkscape:connector-curvature="0"
       d="m -254.90607,106.50275 -9.89677,-9.89614 a 1.4595383,1.4595383 0 0 0 -2.06442,0 l -2.05506,2.055268 2.60696,2.606742 a 1.7329357,1.7329357 0 0 1 1.78357,0.41552 1.7354889,1.7354889 0 0 1 0.41191,1.79443 l 2.51206,2.51249 c 0.60786,-0.20936 1.30933,-0.0738 1.79464,0.41233 a 1.7363399,1.7363399 0 0 1 0,2.45632 1.7369782,1.7369782 0 0 1 -2.83482,-1.88931 l -2.34293,-2.34293 -2.1e-4,6.16581 a 1.7548501,1.7548501 0 0 1 0.45935,0.3285 1.7369782,1.7369782 0 0 1 0,2.45675 c -0.6787,0.67871 -1.77868,0.67871 -2.45632,0 a 1.7369782,1.7369782 0 0 1 0.5685,-2.83567 v -6.22325 a 1.7157021,1.7157021 0 0 1 -0.5685,-0.37914 c -0.51403,-0.5134 -0.63764,-1.26763 -0.37425,-1.89889 l -2.56972,-2.570152 -6.78579,6.785362 a 1.4601765,1.4601765 0 0 0 0,2.06506 l 9.89678,9.89635 a 1.4599638,1.4599638 0 0 0 2.06441,0 l 9.85061,-9.85018 a 1.4608148,1.4608148 0 0 0 0,-2.06527"
       id="path831" />
    <g
       id="g817"
       transform="matrix(0.08967604,0,0,0.08967604,-198.20021,121.00595)"
       style="fill:#ffffff">
      <path
         id="path815"
         d="M 92.375,230.65 H 52.019 a 1.887,1.887 0 0 0 -1.886,1.886 v 19.731 a 1.89,1.89 0 0 0 1.886,1.889 h 15.743 v 24.513 c 0,0 -3.535,1.206 -13.308,1.206 -11.53,0 -27.637,-4.214 -27.637,-39.632 0,-35.425 16.772,-40.087 32.518,-40.087 13.63,0 19.502,2.401 23.238,3.556 1.174,0.36 2.26,-0.808 2.26,-1.851 l 4.502,-19.063 c 0,-0.487 -0.165,-1.075 -0.721,-1.474 -1.517,-1.082 -10.774,-6.262 -34.16,-6.262 -26.941,0 -54.576,11.463 -54.576,66.562 0,55.103 31.64,63.313 58.302,63.313 22.076,0 35.468,-9.434 35.468,-9.434 0.552,-0.306 0.612,-1.077 0.612,-1.431 v -61.537 c 0,-1.04 -0.844,-1.885 -1.885,-1.885 m 207.979,-48.986 a 1.88,1.88 0 0 0 -1.873,-1.896 h -22.724 a 1.889,1.889 0 0 0 -1.882,1.896 l 0.006,43.913 h -35.419 v -43.913 a 1.882,1.882 0 0 0 -1.875,-1.896 h -22.722 a 1.887,1.887 0 0 0 -1.877,1.896 v 118.904 c 0,1.048 0.843,1.901 1.877,1.901 h 22.722 c 1.039,0 1.875,-0.854 1.875,-1.901 v -50.86 h 35.419 l -0.062,50.86 c 0,1.048 0.844,1.901 1.883,1.901 h 22.777 c 1.041,0 1.873,-0.854 1.875,-1.901 V 181.664 m -165.1,15.604 c 0,-8.183 -6.56,-14.795 -14.653,-14.795 -8.085,0 -14.65,6.612 -14.65,14.795 0,8.173 6.565,14.802 14.65,14.802 8.093,0 14.653,-6.629 14.653,-14.802 m -1.625,78.218 V 220.6 a 1.89,1.89 0 0 0 -1.88,-1.895 h -22.651 c -1.039,0 -1.969,1.072 -1.969,2.115 v 78.634 c 0,2.312 1.44,2.998 3.304,2.998 h 20.408 c 2.239,0 2.788,-1.1 2.788,-3.034 V 275.486 M 386.71,218.884 h -22.549 c -1.034,0 -1.876,0.852 -1.876,1.901 v 58.302 c 0,0 -5.729,4.192 -13.859,4.192 -8.13,0 -10.287,-3.689 -10.287,-11.65 v -50.844 c 0,-1.049 -0.841,-1.901 -1.875,-1.901 h -22.886 c -1.032,0 -1.879,0.852 -1.879,1.901 v 54.693 c 0,23.646 13.179,29.431 31.31,29.431 14.873,0 26.864,-8.216 26.864,-8.216 0,0 0.571,4.329 0.829,4.843 0.259,0.512 0.932,1.029 1.659,1.029 l 14.56,-0.064 c 1.032,0 1.879,-0.854 1.879,-1.898 l -0.008,-79.817 c 0,-1.05 -0.843,-1.902 -1.882,-1.902 m 52.735,64.323 c -7.821,-0.238 -13.126,-3.788 -13.126,-3.788 v -37.653 c 0,0 5.233,-3.208 11.654,-3.782 8.12,-0.727 15.944,1.726 15.944,21.095 0.001,20.426 -3.53,24.457 -14.472,24.128 z m 8.894,-66.993 c -12.807,0 -21.518,5.714 -21.518,5.714 v -40.263 c 0,-1.05 -0.839,-1.897 -1.875,-1.897 h -22.787 a 1.887,1.887 0 0 0 -1.878,1.897 v 118.903 c 0,1.048 0.842,1.901 1.881,1.901 h 15.811 c 0.711,0 1.25,-0.367 1.648,-1.009 0.393,-0.639 0.96,-5.482 0.96,-5.482 0,0 9.318,8.83 26.957,8.83 20.708,0 32.584,-10.504 32.584,-47.154 0,-36.651 -18.967,-41.44 -31.783,-41.44 m -249.403,2.481 h -17.045 l -0.026,-22.519 c 0,-0.852 -0.439,-1.278 -1.424,-1.278 h -23.228 c -0.903,0 -1.388,0.398 -1.388,1.265 v 23.271 c 0,0 -11.64,2.809 -12.427,3.037 a 1.886,1.886 0 0 0 -1.361,1.812 v 14.623 c 0,1.052 0.84,1.898 1.879,1.898 h 11.909 v 35.178 c 0,26.13 18.328,28.697 30.696,28.697 5.651,0 12.411,-1.814 13.527,-2.228 0.675,-0.248 1.067,-0.947 1.067,-1.705 l 0.019,-16.086 c 0,-1.05 -0.886,-1.897 -1.884,-1.897 -0.993,0 -3.534,0.404 -6.15,0.404 -8.372,0 -11.209,-3.893 -11.209,-8.932 l -0.001,-33.432 h 17.046 c 1.039,0 1.88,-0.847 1.88,-1.898 v -18.317 a 1.884,1.884 0 0 0 -1.88,-1.893"
         inkscape:connector-curvature="0"
         style="fill:#ffffff" />
    </g>
    <g
       id="g984"
       transform="matrix(0.18105776,0,0,0.18105776,-199.76364,87.339685)"
       style="fill:#ffffff">
      <path
         id="path980"
         d="M 127.505,0 C 57.095,0 0,57.085 0,127.505 c 0,56.336 36.534,104.13 87.196,120.99 6.372,1.18 8.712,-2.766 8.712,-6.134 0,-3.04 -0.119,-13.085 -0.173,-23.739 -35.473,7.713 -42.958,-15.044 -42.958,-15.044 -5.8,-14.738 -14.157,-18.656 -14.157,-18.656 -11.568,-7.914 0.872,-7.752 0.872,-7.752 12.804,0.9 19.546,13.14 19.546,13.14 11.372,19.493 29.828,13.857 37.104,10.6 1.144,-8.242 4.449,-13.866 8.095,-17.05 -28.32,-3.225 -58.092,-14.158 -58.092,-63.014 0,-13.92 4.981,-25.295 13.138,-34.224 -1.324,-3.212 -5.688,-16.18 1.235,-33.743 0,0 10.707,-3.427 35.073,13.07 10.17,-2.826 21.078,-4.242 31.914,-4.29 10.836,0.048 21.752,1.464 31.942,4.29 24.337,-16.497 35.029,-13.07 35.029,-13.07 6.94,17.563 2.574,30.531 1.25,33.743 8.175,8.929 13.122,20.303 13.122,34.224 0,48.972 -29.828,59.756 -58.22,62.912 4.573,3.957 8.648,11.717 8.648,23.612 0,17.06 -0.148,30.791 -0.148,34.991 0,3.393 2.295,7.369 8.759,6.117 50.634,-16.879 87.122,-64.656 87.122,-120.973 C 255.009,57.085 197.922,0 127.505,0"
         inkscape:connector-curvature="0"
         style="fill:#ffffff" />
      <path
         id="path982"
         d="m 47.755,181.634 c -0.28,0.633 -1.278,0.823 -2.185,0.389 -0.925,-0.416 -1.445,-1.28 -1.145,-1.916 0.275,-0.652 1.273,-0.834 2.196,-0.396 0.927,0.415 1.455,1.287 1.134,1.923 m 6.272,5.596 c -0.608,0.564 -1.797,0.302 -2.604,-0.589 -0.834,-0.889 -0.99,-2.077 -0.373,-2.65 0.627,-0.563 1.78,-0.3 2.616,0.59 0.834,0.899 0.996,2.08 0.36,2.65 m 4.304,7.159 c -0.782,0.543 -2.06,0.034 -2.849,-1.1 -0.781,-1.133 -0.781,-2.493 0.017,-3.038 0.792,-0.545 2.05,-0.055 2.85,1.07 0.78,1.153 0.78,2.513 -0.019,3.069 m 7.277,8.292 c -0.699,0.77 -2.187,0.564 -3.277,-0.488 -1.114,-1.028 -1.425,-2.487 -0.724,-3.258 0.707,-0.772 2.204,-0.555 3.302,0.488 1.107,1.026 1.445,2.496 0.7,3.258 m 9.403,2.8 c -0.307,0.998 -1.741,1.452 -3.185,1.028 -1.442,-0.437 -2.386,-1.607 -2.095,-2.616 0.3,-1.005 1.74,-1.478 3.195,-1.024 1.44,0.435 2.386,1.596 2.086,2.612 m 10.703,1.187 c 0.036,1.052 -1.189,1.924 -2.705,1.943 -1.525,0.033 -2.758,-0.818 -2.774,-1.852 0,-1.062 1.197,-1.926 2.721,-1.951 1.516,-0.03 2.758,0.815 2.758,1.86 m 10.514,-0.403 c 0.182,1.026 -0.872,2.08 -2.377,2.36 -1.48,0.27 -2.85,-0.363 -3.039,-1.38 -0.184,-1.052 0.89,-2.105 2.367,-2.378 1.508,-0.262 2.857,0.355 3.049,1.398"
         inkscape:connector-curvature="0"
         style="fill:#ffffff" />
    </g>
    <g
       id="g853"
       transform="matrix(0.71695343,0,0,0.71695343,-276.99312,-9.9159127)"
       style="fill:none;fill-rule:evenodd">
      <path
         id="path845"
         d="M 48.75,95.97 22.84,70.23 37.16,55.66 77.55,95.97 Z"
         inkscape:connector-curvature="0"
         style="fill:#02539a" />
      <g
         id="g851"
         style="fill:#45d1fd">
        <path
           id="path847"
           d="M 22.52,70.25 48.2,44.57 H 77.07 L 37.12,84.52 Z"
           inkscape:connector-curvature="0"
           style="fill-opacity:0.85" />
        <path
           id="path849"
           d="M 0.29,47.85 14.87,62.42 77.07,0.22 H 48.05 Z"
           inkscape:connector-curvature="0" />
      </g>
    </g>
    <g
       aria-label="Flutter"
       transform="matrix(0.39535053,0,0,0.39535053,-428.09196,33.009459)"
       style="font-style:normal;font-weight:normal;font-size:40px;line-height:1.25;font-family:sans-serif;letter-spacing:0px;word-spacing:0px;fill:#ffffff;fill-opacity:1;stroke:none"
       id="flowRoot1004">
      <path
         d="m 397.16406,117.50446 h -3.32031 V 88.949775 h 15.91797 v 2.949218 H 397.16406 V 102.34821 H 409 v 2.94922 h -11.83594 z"
         style="font-style:normal;font-variant:normal;font-weight:normal;font-stretch:normal;font-family:'Open Sans';-inkscape-font-specification:'Open Sans';fill:#ffffff"
         id="path1201"
         inkscape:connector-curvature="0" />
      <path
         d="m 417.22266,117.50446 h -3.24219 V 87.113837 h 3.24219 z"
         style="font-style:normal;font-variant:normal;font-weight:normal;font-stretch:normal;font-family:'Open Sans';-inkscape-font-specification:'Open Sans';fill:#ffffff"
         id="path1203"
         inkscape:connector-curvature="0" />
      <path
         d="m 427.18359,96.098212 v 13.886718 q 0,2.61719 1.19141,3.90625 1.19141,1.28906 3.73047,1.28906 3.35937,0 4.90234,-1.83593 1.5625,-1.83594 1.5625,-5.9961 V 96.098212 h 3.24219 v 21.406248 h -2.67578 l -0.46875,-2.87109 h -0.17578 q -0.9961,1.58203 -2.77344,2.42187 -1.75781,0.83985 -4.02344,0.83985 -3.90625,0 -5.85937,-1.85547 -1.9336,-1.85547 -1.9336,-5.9375 V 96.098212 Z"
         style="font-style:normal;font-variant:normal;font-weight:normal;font-stretch:normal;font-family:'Open Sans';-inkscape-font-specification:'Open Sans';fill:#ffffff"
         id="path1205"
         inkscape:connector-curvature="0" />
      <path
         d="m 455.58203,115.21931 q 0.85938,0 1.66016,-0.11719 0.80078,-0.13672 1.26953,-0.27344 v 2.48047 q -0.52735,0.25391 -1.5625,0.41016 -1.01563,0.17578 -1.83594,0.17578 -6.21094,0 -6.21094,-6.54297 V 98.617743 h -3.0664 v -1.5625 l 3.0664,-1.347656 1.36719,-4.570312 h 1.875 v 4.960937 h 6.21094 v 2.519531 h -6.21094 V 111.2154 q 0,1.93359 0.91797,2.96875 0.91797,1.03516 2.51953,1.03516 z"
         style="font-style:normal;font-variant:normal;font-weight:normal;font-stretch:normal;font-family:'Open Sans';-inkscape-font-specification:'Open Sans';fill:#ffffff"
         id="path1207"
         inkscape:connector-curvature="0" />
      <path
         d="m 469.72266,115.21931 q 0.85937,0 1.66015,-0.11719 0.80078,-0.13672 1.26953,-0.27344 v 2.48047 q -0.52734,0.25391 -1.5625,0.41016 -1.01562,0.17578 -1.83593,0.17578 -6.21094,0 -6.21094,-6.54297 V 98.617743 h -3.06641 v -1.5625 l 3.06641,-1.347656 1.36719,-4.570312 h 1.875 v 4.960937 h 6.21093 v 2.519531 h -6.21093 V 111.2154 q 0,1.93359 0.91796,2.96875 0.91797,1.03516 2.51954,1.03516 z"
         style="font-style:normal;font-variant:normal;font-weight:normal;font-stretch:normal;font-family:'Open Sans';-inkscape-font-specification:'Open Sans';fill:#ffffff"
         id="path1209"
         inkscape:connector-curvature="0" />
      <path
         d="m 485.99219,117.89509 q -4.7461,0 -7.5,-2.89063 -2.73438,-2.89062 -2.73438,-8.02734 0,-5.17578 2.53906,-8.222658 2.5586,-3.046875 6.85547,-3.046875 4.02344,0 6.36719,2.65625 2.34375,2.636723 2.34375,6.972653 v 2.05078 h -14.74609 q 0.0976,3.76954 1.89453,5.72266 1.8164,1.95313 5.09765,1.95313 3.45704,0 6.83594,-1.44532 v 2.89063 q -1.71875,0.74219 -3.26172,1.05469 -1.52343,0.33203 -3.6914,0.33203 z m -0.87891,-19.472659 q -2.57812,0 -4.12109,1.679689 -1.52344,1.67969 -1.79688,4.64844 h 11.19141 q 0,-3.06641 -1.36719,-4.6875 -1.36719,-1.640629 -3.90625,-1.640629 z"
         style="font-style:normal;font-variant:normal;font-weight:normal;font-stretch:normal;font-family:'Open Sans';-inkscape-font-specification:'Open Sans';fill:#ffffff"
         id="path1211"
         inkscape:connector-curvature="0" />
      <path
         d="m 509.13672,95.707587 q 1.42578,0 2.55859,0.234375 l -0.44922,3.007813 q -1.32812,-0.292969 -2.34375,-0.292969 -2.59765,0 -4.45312,2.109374 -1.83594,2.10938 -1.83594,5.25391 v 11.48437 h -3.24219 V 96.098212 h 2.67578 l 0.3711,3.964848 h 0.15625 q 1.1914,-2.089848 2.87109,-3.22266 1.67969,-1.132813 3.69141,-1.132813 z"
         style="font-style:normal;font-variant:normal;font-weight:normal;font-stretch:normal;font-family:'Open Sans';-inkscape-font-specification:'Open Sans';fill:#ffffff"
         id="path1213"
         inkscape:connector-curvature="0" />
    </g>
    <g
       id="Flare-UI"
       transform="matrix(1.3639654,0,0,1.3639654,-128.03549,87.851296)"
       style="fill:none;fill-rule:evenodd;stroke:none;stroke-width:1">
      <g
         transform="rotate(90,23.5,23.5)"
         id="Flare-Logo"
         style="fill:url(#linearGradient978)">
        <path
           id="Combined-Shape"
           d="m 25.364412,38.55034 c -0.339041,0.775663 -0.919749,1.438372 -1.677208,1.875691 L 18,43.70954 V 32.540284 l 4.016118,2.303204 c 1.507153,0.864337 2.66579,2.173292 3.348294,3.706852 z"
           inkscape:connector-curvature="0"
           style="fill:url(#linearGradient972)" />
        <path
           id="path952"
           d="m 17.06,44.252249 -2.195071,1.267325 c -1.246402,0.719611 -2.782034,0.719611 -4.028436,0 L 9,44.459274 V 18.037915 l 4.017678,2.303203 C 15.518392,21.774697 17.06,24.431379 17.06,27.30733 Z"
           inkscape:connector-curvature="0"
           style="fill:url(#linearGradient974)" />
        <path
           id="path954"
           d="M 8.056872,43.914759 2.014218,40.426031 C 0.76781557,39.70642 0,38.376525 0,36.937303 V 0.31279621 L 4.0161181,2.6159998 C 6.5158621,4.0495781 8.056872,6.7062607 8.056872,9.5822112 Z"
           inkscape:connector-curvature="0"
           style="fill:url(#linearGradient976)" />
      </g>
    </g>
    <g
       aria-label="Flare"
       transform="matrix(0.28178971,0,0,0.28178971,-218.62408,103.26342)"
       style="font-style:normal;font-weight:normal;font-size:40px;line-height:1.25;font-family:sans-serif;letter-spacing:0px;word-spacing:0px;fill:#ffffff;fill-opacity:1;stroke:none"
       id="flowRoot1018">
      <path
         d="m 397.16406,117.50446 h -3.32031 V 88.949775 h 15.91797 v 2.949218 H 397.16406 V 102.34821 H 409 v 2.94922 h -11.83594 z"
         style="font-style:normal;font-variant:normal;font-weight:normal;font-stretch:normal;font-family:'Open Sans';-inkscape-font-specification:'Open Sans';fill:#ffffff"
         id="path1216"
         inkscape:connector-curvature="0" />
      <path
         d="m 417.22266,117.50446 h -3.24219 V 87.113837 h 3.24219 z"
         style="font-style:normal;font-variant:normal;font-weight:normal;font-stretch:normal;font-family:'Open Sans';-inkscape-font-specification:'Open Sans';fill:#ffffff"
         id="path1218"
         inkscape:connector-curvature="0" />
      <path
         d="m 437.30078,117.50446 -0.64453,-3.04687 H 436.5 q -1.60156,2.01172 -3.20313,2.73437 -1.58203,0.70313 -3.96484,0.70313 -3.18359,0 -5,-1.64063 -1.79687,-1.64062 -1.79687,-4.66797 0,-6.48437 10.37109,-6.79687 l 3.63281,-0.11719 v -1.32812 q 0,-2.51954 -1.09375,-3.710942 -1.07422,-1.210937 -3.45703,-1.210937 -2.67578,0 -6.05469,1.640629 l -0.99609,-2.480473 q 1.58203,-0.859375 3.45703,-1.347656 1.89453,-0.488281 3.78906,-0.488281 3.82813,0 5.66407,1.699218 1.85546,1.699219 1.85546,5.449222 v 14.60937 z m -7.32422,-2.28515 q 3.02735,0 4.7461,-1.66016 1.73828,-1.66016 1.73828,-4.64844 v -1.93359 l -3.24219,0.13672 q -3.86719,0.13672 -5.58594,1.21093 -1.69922,1.05469 -1.69922,3.30079 0,1.75781 1.05469,2.67578 1.07422,0.91797 2.98828,0.91797 z"
         style="font-style:normal;font-variant:normal;font-weight:normal;font-stretch:normal;font-family:'Open Sans';-inkscape-font-specification:'Open Sans';fill:#ffffff"
         id="path1220"
         inkscape:connector-curvature="0" />
      <path
         d="m 456.16797,95.707587 q 1.42578,0 2.55859,0.234375 l -0.44922,3.007813 q -1.32812,-0.292969 -2.34375,-0.292969 -2.59765,0 -4.45312,2.109374 -1.83594,2.10938 -1.83594,5.25391 v 11.48437 h -3.24219 V 96.098212 h 2.67578 l 0.3711,3.964848 h 0.15625 q 1.1914,-2.089848 2.87109,-3.22266 1.67969,-1.132813 3.69141,-1.132813 z"
         style="font-style:normal;font-variant:normal;font-weight:normal;font-stretch:normal;font-family:'Open Sans';-inkscape-font-specification:'Open Sans';fill:#ffffff"
         id="path1222"
         inkscape:connector-curvature="0" />
      <path
         d="m 471.77344,117.89509 q -4.7461,0 -7.5,-2.89063 -2.73438,-2.89062 -2.73438,-8.02734 0,-5.17578 2.53906,-8.222658 2.5586,-3.046875 6.85547,-3.046875 4.02344,0 6.36719,2.65625 2.34375,2.636723 2.34375,6.972653 v 2.05078 h -14.74609 q 0.0976,3.76954 1.89453,5.72266 1.8164,1.95313 5.09765,1.95313 3.45704,0 6.83594,-1.44532 v 2.89063 q -1.71875,0.74219 -3.26172,1.05469 -1.52343,0.33203 -3.6914,0.33203 z m -0.87891,-19.472659 q -2.57812,0 -4.12109,1.679689 -1.52344,1.67969 -1.79688,4.64844 h 11.19141 q 0,-3.06641 -1.36719,-4.6875 -1.36719,-1.640629 -3.90625,-1.640629 z"
         style="font-style:normal;font-variant:normal;font-weight:normal;font-stretch:normal;font-family:'Open Sans';-inkscape-font-specification:'Open Sans';fill:#ffffff"
         id="path1224"
         inkscape:connector-curvature="0" />
    </g>
    <g
       id="g938"
       transform="matrix(0.16588434,0,0,0.16588434,-112.37878,-6.1495682)">
      <path
         id="path890"
         d="M 0,282.998 2.123,280.026 102.527,89.512 102.739,87.495 58.48,4.358 C 54.77,-2.606 44.33,-0.845 43.114,6.951 Z"
         inkscape:connector-curvature="0"
         style="fill:#ffc24a" />
      <use
         id="use892"
         xlink:href="#a"
         style="fill:#ffa712;fill-rule:evenodd"
         x="0"
         y="0"
         width="100%"
         height="100%" />
      <use
         id="use894"
         xlink:href="#a"
         style="filter:url(#b)"
         x="0"
         y="0"
         width="100%"
         height="100%" />
      <path
         id="path896"
         d="M 135.005,150.38 167.96,116.63 134.995,53.7 c -3.129,-5.957 -11.866,-5.975 -14.962,0 L 102.42,87.287 v 2.86 l 32.584,60.233 z"
         inkscape:connector-curvature="0"
         style="fill:#f4bd62" />
      <use
         id="use898"
         xlink:href="#c"
         style="fill:#ffa50e;fill-rule:evenodd"
         x="0"
         y="0"
         width="100%"
         height="100%" />
      <use
         id="use900"
         xlink:href="#c"
         style="filter:url(#d)"
         x="0"
         y="0"
         width="100%"
         height="100%" />
      <path
         id="path902"
         d="m 0,282.998 0.962,-0.968 3.496,-1.42 128.477,-128 1.628,-4.431 -32.05,-61.074 z"
         inkscape:connector-curvature="0"
         style="fill:#f6820c" />
      <path
         id="path904"
         d="M 139.121,347.551 255.396,282.704 222.192,78.209 c -1.039,-6.398 -8.888,-8.927 -13.468,-4.34 L 0,282.998 115.608,347.546 a 24.126,24.126 0 0 0 23.513,0.005"
         inkscape:connector-curvature="0"
         style="fill:#fde068" />
      <path
         id="path906"
         d="M 254.354,282.16 221.402,79.218 c -1.03,-6.35 -7.558,-8.977 -12.103,-4.424 L 1.29,282.6 115.629,346.508 a 23.943,23.943 0 0 0 23.334,0.006 l 115.392,-64.355 z"
         inkscape:connector-curvature="0"
         style="fill:#fcca3f" />
      <path
         id="path908"
         d="m 139.12,345.64 a 24.126,24.126 0 0 1 -23.512,-0.005 l -114.677,-63.62 -0.93,0.983 115.607,64.548 a 24.126,24.126 0 0 0 23.513,0.005 l 116.275,-64.847 -0.285,-1.752 -115.99,64.689 z"
         inkscape:connector-curvature="0"
         style="fill:#eeab37" />
    </g>
    <g
       id="g1092"
       transform="matrix(0.59859008,0,0,0.59859008,-4.2319677,-88.921533)">
      <g
         aria-label="Firebase"
         transform="matrix(0.55940368,0,0,0.55940368,-409.00284,205.23795)"
         style="font-style:normal;font-weight:normal;font-size:40px;line-height:1.25;font-family:sans-serif;letter-spacing:0px;word-spacing:0px;fill:#ffffff;fill-opacity:1;stroke:none"
         id="flowRoot1026">
        <path
           d="m 397.16406,117.50446 h -3.32031 V 88.949775 h 15.91797 v 2.949218 H 397.16406 V 102.34821 H 409 v 2.94922 h -11.83594 z"
           style="font-style:normal;font-variant:normal;font-weight:normal;font-stretch:normal;font-family:'Open Sans';-inkscape-font-specification:'Open Sans';fill:#ffffff"
           id="path1184"
           inkscape:connector-curvature="0" />
        <path
           d="m 417.22266,117.50446 h -3.24219 V 96.098212 h 3.24219 z m -3.51563,-27.207029 q 0,-1.113281 0.54688,-1.621094 0.54687,-0.527344 1.36718,-0.527344 0.78125,0 1.34766,0.527344 0.56641,0.527344 0.56641,1.621094 0,1.09375 -0.56641,1.640625 -0.56641,0.527344 -1.34766,0.527344 -0.82031,0 -1.36718,-0.527344 -0.54688,-0.546875 -0.54688,-1.640625 z"
           style="font-style:normal;font-variant:normal;font-weight:normal;font-stretch:normal;font-family:'Open Sans';-inkscape-font-specification:'Open Sans';fill:#ffffff"
           id="path1186"
           inkscape:connector-curvature="0" />
        <path
           d="m 433.90234,95.707587 q 1.42578,0 2.5586,0.234375 l -0.44922,3.007813 q -1.32813,-0.292969 -2.34375,-0.292969 -2.59766,0 -4.45313,2.109374 -1.83593,2.10938 -1.83593,5.25391 v 11.48437 h -3.24219 V 96.098212 h 2.67578 l 0.37109,3.964848 h 0.15625 q 1.19141,-2.089848 2.8711,-3.22266 1.67968,-1.132813 3.6914,-1.132813 z"
           style="font-style:normal;font-variant:normal;font-weight:normal;font-stretch:normal;font-family:'Open Sans';-inkscape-font-specification:'Open Sans';fill:#ffffff"
           id="path1188"
           inkscape:connector-curvature="0" />
        <path
           d="m 449.50781,117.89509 q -4.74609,0 -7.5,-2.89063 -2.73437,-2.89062 -2.73437,-8.02734 0,-5.17578 2.53906,-8.222658 2.55859,-3.046875 6.85547,-3.046875 4.02344,0 6.36719,2.65625 2.34375,2.636723 2.34375,6.972653 v 2.05078 h -14.7461 q 0.0977,3.76954 1.89453,5.72266 1.81641,1.95313 5.09766,1.95313 3.45703,0 6.83594,-1.44532 v 2.89063 q -1.71875,0.74219 -3.26172,1.05469 -1.52344,0.33203 -3.69141,0.33203 z m -0.8789,-19.472659 q -2.57813,0 -4.1211,1.679689 -1.52344,1.67969 -1.79687,4.64844 h 11.1914 q 0,-3.06641 -1.36718,-4.6875 -1.36719,-1.640629 -3.90625,-1.640629 z"
           style="font-style:normal;font-variant:normal;font-weight:normal;font-stretch:normal;font-family:'Open Sans';-inkscape-font-specification:'Open Sans';fill:#ffffff"
           id="path1190"
           inkscape:connector-curvature="0" />
        <path
           d="m 472.84766,95.74665 q 4.21875,0 6.54296,2.890625 2.34375,2.871095 2.34375,8.144535 0,5.27343 -2.36328,8.20312 -2.34375,2.91016 -6.52343,2.91016 -2.08985,0 -3.82813,-0.76172 -1.71875,-0.78125 -2.89062,-2.38281 h -0.23438 l -0.68359,2.7539 h -2.32422 V 87.113837 h 3.24219 v 7.382813 q 0,2.480468 -0.15625,4.453125 h 0.15625 q 2.26562,-3.203125 6.71875,-3.203125 z m -0.46875,2.714843 q -3.32032,0 -4.78516,1.914067 -1.46484,1.89453 -1.46484,6.40625 0,4.51171 1.5039,6.46484 1.50391,1.93359 4.82422,1.93359 2.98828,0 4.45313,-2.16797 1.46484,-2.1875 1.46484,-6.26953 0,-4.17968 -1.46484,-6.23047 -1.46485,-2.050777 -4.53125,-2.050777 z"
           style="font-style:normal;font-variant:normal;font-weight:normal;font-stretch:normal;font-family:'Open Sans';-inkscape-font-specification:'Open Sans';fill:#ffffff"
           id="path1192"
           inkscape:connector-curvature="0" />
        <path
           d="m 500.58203,117.50446 -0.64453,-3.04687 h -0.15625 q -1.60156,2.01172 -3.20313,2.73437 -1.58203,0.70313 -3.96484,0.70313 -3.18359,0 -5,-1.64063 -1.79687,-1.64062 -1.79687,-4.66797 0,-6.48437 10.37109,-6.79687 l 3.63281,-0.11719 v -1.32812 q 0,-2.51954 -1.09375,-3.710942 -1.07422,-1.210937 -3.45703,-1.210937 -2.67578,0 -6.05469,1.640629 l -0.99609,-2.480473 q 1.58203,-0.859375 3.45703,-1.347656 1.89453,-0.488281 3.78906,-0.488281 3.82813,0 5.66407,1.699218 1.85546,1.699219 1.85546,5.449222 v 14.60937 z m -7.32422,-2.28515 q 3.02735,0 4.7461,-1.66016 1.73828,-1.66016 1.73828,-4.64844 v -1.93359 L 496.5,107.11384 q -3.86719,0.13672 -5.58594,1.21093 -1.69922,1.05469 -1.69922,3.30079 0,1.75781 1.05469,2.67578 1.07422,0.91797 2.98828,0.91797 z"
           style="font-style:normal;font-variant:normal;font-weight:normal;font-stretch:normal;font-family:'Open Sans';-inkscape-font-specification:'Open Sans';fill:#ffffff"
           id="path1194"
           inkscape:connector-curvature="0" />
        <path
           d="m 523.49219,111.66462 q 0,2.98828 -2.22657,4.60937 -2.22656,1.6211 -6.25,1.6211 -4.25781,0 -6.64062,-1.34766 v -3.00781 q 1.54297,0.78125 3.30078,1.23047 1.77734,0.44922 3.41797,0.44922 2.53906,0 3.90625,-0.80079 1.36719,-0.82031 1.36719,-2.48046 0,-1.25 -1.09375,-2.12891 -1.07422,-0.89844 -4.21875,-2.10938 -2.98828,-1.11328 -4.25782,-1.93359 -1.25,-0.83984 -1.875,-1.89453 -0.60546,-1.05469 -0.60546,-2.51953 0,-2.617189 2.1289,-4.121095 2.12891,-1.523438 5.83985,-1.523438 3.45703,0 6.75781,1.40625 l -1.15235,2.636719 q -3.22265,-1.328125 -5.83984,-1.328125 -2.30469,0 -3.47656,0.722656 -1.17188,0.722656 -1.17188,1.992183 0,0.85938 0.42969,1.46485 0.44922,0.60547 1.42578,1.15234 0.97656,0.54688 3.75,1.58203 3.8086,1.38672 5.13672,2.79297 1.34766,1.40625 1.34766,3.53516 z"
           style="font-style:normal;font-variant:normal;font-weight:normal;font-stretch:normal;font-family:'Open Sans';-inkscape-font-specification:'Open Sans';fill:#ffffff"
           id="path1196"
           inkscape:connector-curvature="0" />
        <path
           d="m 537.78906,117.89509 q -4.74609,0 -7.5,-2.89063 -2.73437,-2.89062 -2.73437,-8.02734 0,-5.17578 2.53906,-8.222658 2.55859,-3.046875 6.85547,-3.046875 4.02344,0 6.36719,2.65625 2.34375,2.636723 2.34375,6.972653 v 2.05078 h -14.7461 q 0.0977,3.76954 1.89453,5.72266 1.81641,1.95313 5.09766,1.95313 3.45703,0 6.83594,-1.44532 v 2.89063 q -1.71875,0.74219 -3.26172,1.05469 -1.52344,0.33203 -3.69141,0.33203 z m -0.8789,-19.472659 q -2.57813,0 -4.1211,1.679689 -1.52344,1.67969 -1.79687,4.64844 h 11.1914 q 0,-3.06641 -1.36718,-4.6875 -1.36719,-1.640629 -3.90625,-1.640629 z"
           style="font-style:normal;font-variant:normal;font-weight:normal;font-stretch:normal;font-family:'Open Sans';-inkscape-font-specification:'Open Sans';fill:#ffffff"
           id="path1198"
           inkscape:connector-curvature="0" />
      </g>
    </g>
    <g
       aria-label="Dart"
       transform="matrix(0.37172652,0,0,0.37172652,-333.73918,26.685669)"
       style="font-style:normal;font-weight:normal;font-size:40px;line-height:1.25;font-family:sans-serif;letter-spacing:0px;word-spacing:0px;fill:#ffffff;fill-opacity:1;stroke:none"
       id="flowRoot1034">
      <path
         d="m 416.63672,102.95368 q 0,7.07031 -3.84766,10.82031 -3.82812,3.73047 -11.03515,3.73047 h -7.91016 V 88.949775 h 8.75 q 6.66016,0 10.35156,3.691406 3.69141,3.691406 3.69141,10.312499 z m -3.51563,0.11719 q 0,-5.585939 -2.8125,-8.41797 -2.79297,-2.832032 -8.32031,-2.832032 h -4.82422 v 22.812502 h 4.04297 q 5.9375,0 8.92578,-2.91016 2.98828,-2.92969 2.98828,-8.65234 z"
         style="font-style:normal;font-variant:normal;font-weight:normal;font-stretch:normal;font-family:'Open Sans';-inkscape-font-specification:'Open Sans';fill:#ffffff"
         id="path1175"
         inkscape:connector-curvature="0" />
      <path
         d="m 435.66016,117.50446 -0.64454,-3.04687 h -0.15625 q -1.60156,2.01172 -3.20312,2.73437 -1.58203,0.70313 -3.96484,0.70313 -3.1836,0 -5,-1.64063 -1.79688,-1.64062 -1.79688,-4.66797 0,-6.48437 10.37109,-6.79687 l 3.63282,-0.11719 v -1.32812 q 0,-2.51954 -1.09375,-3.710942 -1.07422,-1.210937 -3.45703,-1.210937 -2.67579,0 -6.05469,1.640629 l -0.9961,-2.480473 q 1.58204,-0.859375 3.45704,-1.347656 1.89453,-0.488281 3.78906,-0.488281 3.82812,0 5.66406,1.699218 1.85547,1.699219 1.85547,5.449222 v 14.60937 z m -7.32422,-2.28515 q 3.02734,0 4.74609,-1.66016 1.73828,-1.66016 1.73828,-4.64844 v -1.93359 l -3.24219,0.13672 q -3.86718,0.13672 -5.58593,1.21093 -1.69922,1.05469 -1.69922,3.30079 0,1.75781 1.05469,2.67578 1.07421,0.91797 2.98828,0.91797 z"
         style="font-style:normal;font-variant:normal;font-weight:normal;font-stretch:normal;font-family:'Open Sans';-inkscape-font-specification:'Open Sans';fill:#ffffff"
         id="path1177"
         inkscape:connector-curvature="0" />
      <path
         d="m 454.52734,95.707587 q 1.42578,0 2.5586,0.234375 l -0.44922,3.007813 q -1.32813,-0.292969 -2.34375,-0.292969 -2.59766,0 -4.45313,2.109374 -1.83593,2.10938 -1.83593,5.25391 v 11.48437 h -3.24219 V 96.098212 h 2.67578 l 0.37109,3.964848 h 0.15625 q 1.19141,-2.089848 2.8711,-3.22266 1.67968,-1.132813 3.6914,-1.132813 z"
         style="font-style:normal;font-variant:normal;font-weight:normal;font-stretch:normal;font-family:'Open Sans';-inkscape-font-specification:'Open Sans';fill:#ffffff"
         id="path1179"
         inkscape:connector-curvature="0" />
      <path
         d="m 468.00391,115.21931 q 0.85937,0 1.66015,-0.11719 0.80078,-0.13672 1.26953,-0.27344 v 2.48047 q -0.52734,0.25391 -1.5625,0.41016 -1.01562,0.17578 -1.83593,0.17578 -6.21094,0 -6.21094,-6.54297 V 98.617743 h -3.06641 v -1.5625 l 3.06641,-1.347656 1.36719,-4.570312 h 1.875 v 4.960937 h 6.21093 v 2.519531 h -6.21093 V 111.2154 q 0,1.93359 0.91796,2.96875 0.91797,1.03516 2.51954,1.03516 z"
         style="font-style:normal;font-variant:normal;font-weight:normal;font-stretch:normal;font-family:'Open Sans';-inkscape-font-specification:'Open Sans';fill:#ffffff"
         id="path1181"
         inkscape:connector-curvature="0" />
    </g>
    <g
       id="g1062"
       transform="matrix(0.18814131,0,0,0.18814131,-197.09079,5.9267536)">
      <path
         id="path1036"
         d="M 70.534,69.696 53.988,53.15 l 0.07,119.6 0.198,5.59 c 0.082,2.63 0.57,5.598 1.384,8.674 l 131.104,46.23 32.772,-14.52 0.012,-0.04 L 70.534,69.696"
         inkscape:connector-curvature="0"
         style="fill:#00d2b8" />
      <path
         id="path1038"
         d="m 55.64,187.014 0.008,0.008 c -0.008,-0.054 -0.036,-0.114 -0.036,-0.17 0,0.056 0.008,0.108 0.028,0.162 z m 163.876,31.71 -32.772,14.52 -131.096,-46.222 c 2.504,9.608 8.048,20.408 14.014,26.314 l 42.784,42.54 95.13,0.124 11.952,-37.316 z"
         inkscape:connector-curvature="0"
         style="fill:#55ddca" />
      <path
         id="path1040"
         d="m 3.034,130.116 c -4.236,4.522 -2.132,13.85 4.688,20.722 l 29.418,29.662 18.5,6.514 c -0.814,-3.076 -1.302,-6.044 -1.384,-8.674 l -0.198,-5.59 -0.07,-119.6 z"
         inkscape:connector-curvature="0"
         style="fill:#0081c6" />
      <path
         id="path1042"
         d="m 187.82,54.686 c -3.076,-0.786 -6.026,-1.272 -8.7,-1.356 l -5.908,-0.204 -119.224,0.016 165.556,165.542 h 0.014 L 234.098,185.88 187.82,54.686"
         inkscape:connector-curvature="0"
         style="fill:#0079b3" />
      <path
         id="path1044"
         d="m 187.67,54.654 c 0.064,0.014 0.114,0.032 0.156,0.038 l -0.006,-0.006 c -0.036,-0.018 -0.086,-0.018 -0.15,-0.032 z m 26.448,14.078 C 208.11,62.674 197.452,57.168 187.826,54.692 l 46.272,131.188 -14.54,32.804 h -0.014 l 35.532,-11.348 0.076,-97.416 z"
         inkscape:connector-curvature="0"
         style="fill:#00a4e4" />
      <path
         id="path1046"
         d="M 181.338,36.298 151.684,6.862 c -6.858,-6.794 -16.19,-8.908 -20.7,-4.684 l -76.996,50.964 119.224,-0.016 5.908,0.204 c 2.674,0.084 5.624,0.57 8.7,1.356 z"
         inkscape:connector-curvature="0"
         style="fill:#00d2b8" />
    </g>
  </g>
</svg>
